<?xml version="1.0" encoding="UTF-8"?>
<svg id="Layer_1" xmlns="http://www.w3.org/2000/svg" version="1.1" viewBox="0 0 2267.72 2267.72">
  <!-- Generator: Adobe Illustrator 29.8.1, SVG Export Plug-In . SVG Version: 2.1.1 Build 2)  -->
  <defs>
    <style>
      .st0 {
        fill: #231f20;
      }

      .st1 {
        fill: #131819;
      }

      .st2 {
        fill: #c7990b;
      }

      .st3 {
        fill: #fff;
      }
    </style>
  </defs>
  <g>
    <g>
      <path class="st3" d="M2059.05,2347.34c3.37-3.75,7.72-5.63,13.05-5.63,4.22,0,7.66,1.34,10.32,4.03,2.6,2.66,3.91,6.07,3.91,10.2,0,3.53-.88,6.4-2.63,8.6-1.63,2.06-3.65,3.09-6.05,3.09-1.09,0-1.97-.34-2.63-1.03-.75-.77-1.09-1.87-1.03-3.3h-.18c-1.7,2.89-4.02,4.33-6.96,4.33-1.45,0-2.68-.55-3.69-1.67-1.07-1.15-1.6-2.65-1.6-4.51,0-3.13,1.09-5.83,3.27-8.11,2.28-2.36,5.09-3.54,8.42-3.54,1.96,0,3.7.32,5.24.97l-1.67,8.93c-.67,3.67-.17,5.51,1.48,5.51,1.35.02,2.54-.76,3.57-2.33,1.15-1.71,1.73-3.92,1.73-6.6,0-3.67-1.03-6.61-3.09-8.81-2.16-2.3-5.11-3.45-8.84-3.45-4.08,0-7.52,1.47-10.32,4.42-2.91,3.07-4.36,7.02-4.36,11.87,0,4.04,1.2,7.3,3.6,9.78,2.32,2.38,5.32,3.57,8.99,3.57,2.85,0,5.33-.6,7.45-1.79l.79,2.12c-2.48,1.33-5.4,2-8.75,2-4.18,0-7.67-1.38-10.47-4.15-2.93-2.89-4.39-6.63-4.39-11.23,0-5.23,1.62-9.65,4.87-13.26h-.03ZM2068.07,2364.96c1.33,0,2.61-.74,3.84-2.21,1.15-1.33,1.86-2.82,2.12-4.45l1.03-5.54c-.75-.24-1.55-.36-2.42-.36-2.16,0-4.01.88-5.54,2.63-1.53,1.76-2.3,3.83-2.3,6.21s1.09,3.72,3.27,3.72h0Z"/>
      <path class="st3" d="M2091.23,2366.44c1.82,1.11,3.72,1.67,5.72,1.67,3.07,0,4.6-1.18,4.6-3.54,0-1.8-1.46-3.24-4.39-4.33-4.22-1.51-6.33-3.76-6.33-6.75,0-1.98.74-3.62,2.21-4.93,1.53-1.35,3.54-2.03,6.02-2.03,2.26,0,4.18.48,5.75,1.45l-1,3.12c-1.66-.93-3.28-1.39-4.87-1.39-1.23,0-2.21.32-2.94.97-.71.63-1.06,1.4-1.06,2.33,0,1.53,1.51,2.89,4.54,4.06,4.16,1.55,6.24,3.94,6.24,7.14,0,2.12-.78,3.83-2.33,5.12-1.59,1.35-3.77,2.03-6.54,2.03-2.56,0-4.79-.56-6.69-1.7l1.06-3.21h.01Z"/>
      <path class="st3" d="M2112.94,2350.25c2.06-2.48,4.79-3.72,8.2-3.72s6.03,1.31,7.75,3.94c1.35,2.02,2.03,4.43,2.03,7.24,0,.91-.07,1.57-.21,2h-16.65c.06,2.79.88,4.9,2.45,6.36,1.43,1.27,3.31,1.91,5.63,1.91,2.52,0,4.74-.4,6.66-1.21l.73,3.09c-2.16,1.01-4.79,1.51-7.9,1.51-3.61,0-6.48-1.11-8.6-3.33-2.06-2.16-3.09-5.04-3.09-8.66s1-6.73,3-9.11v-.02h0ZM2126.71,2356.6c.04-1.74-.34-3.23-1.15-4.48-1.05-1.63-2.65-2.45-4.81-2.45-2,0-3.61.78-4.84,2.33-.97,1.29-1.57,2.83-1.82,4.6h12.62Z"/>
      <path class="st3" d="M2136.22,2353.49c0-1.61-.07-3.76-.21-6.45h3.78l.18,3.84h.09c1.71-2.91,4.22-4.36,7.51-4.36s5.54,1.58,6.75,4.75h.09c.71-1.27,1.59-2.3,2.66-3.09,1.49-1.11,3.24-1.67,5.24-1.67s3.7.68,5.06,2.03c1.84,1.82,2.75,4.57,2.75,8.26v13.99h-4.24v-13.38c0-4.88-1.72-7.33-5.15-7.33-2.48,0-4.19,1.28-5.12,3.84-.26.91-.39,1.65-.39,2.21v14.65h-4.15v-14.23c0-1.94-.43-3.49-1.3-4.66-.87-1.21-2.09-1.82-3.66-1.82-2.62,0-4.43,1.42-5.42,4.27-.18.63-.27,1.33-.27,2.12v14.32h-4.21v-17.32.03h0Z"/>
      <path class="st3" d="M2178.87,2357.97c2.48-1.53,6.01-2.28,10.6-2.24v-.51c0-3.67-1.8-5.51-5.39-5.51-2.3,0-4.37.6-6.21,1.79l-1.03-2.88c2.22-1.39,4.84-2.09,7.87-2.09,6.01,0,9.02,3.25,9.02,9.75v8.84c0,2.28.11,4.18.33,5.69h-3.88l-.39-3h-.09c-1.72,2.36-4.14,3.54-7.27,3.54-2.24,0-4.05-.71-5.42-2.12-1.23-1.29-1.85-2.86-1.85-4.69,0-2.89,1.23-5.08,3.69-6.57h.02,0ZM2183.56,2368.14c2.89,0,4.82-1.31,5.81-3.94.12-.61.18-1.06.18-1.36v-4.15c-6.7-.06-10.05,1.72-10.05,5.33,0,2.75,1.35,4.12,4.06,4.12h0Z"/>
      <path class="st3" d="M2200.79,2363.29v-12.96h-3.69v-3.3h3.69v-5.69l4.27-1.12v6.81h6.18v3.3h-6.18v12.81c0,3.07,1.08,4.6,3.24,4.6.97,0,1.8-.11,2.48-.33l.21,3.3c-1.03.42-2.31.64-3.84.64-2.08,0-3.65-.61-4.72-1.82-1.09-1.29-1.63-3.37-1.63-6.24h-.01Z"/>
      <path class="st3" d="M2216.38,2342.25c-.46-.48-.7-1.11-.7-1.88s.25-1.38.76-1.91c.52-.52,1.17-.79,1.94-.79,1.76,0,2.63.9,2.63,2.69.04.77-.19,1.39-.7,1.88-.53.5-1.2.76-2.03.76-.77,0-1.4-.25-1.91-.76h.01ZM2216.23,2347.04h4.24v23.76h-4.24v-23.76Z"/>
      <path class="st3" d="M2229.43,2350.12c2.38-2.38,5.47-3.57,9.26-3.57,2.4,0,4.41.41,6.02,1.24l-.97,3.3c-1.45-.73-3.13-1.09-5.03-1.09-2.62,0-4.7.88-6.24,2.63-1.43,1.66-2.15,3.76-2.15,6.33,0,2.71.8,4.87,2.39,6.51,1.51,1.57,3.48,2.36,5.9,2.36,1.63,0,3.39-.36,5.27-1.09l.73,3.18c-1.82.95-4.09,1.42-6.81,1.42-3.57,0-6.45-1.11-8.63-3.33-2.14-2.22-3.21-5.15-3.21-8.78s1.15-6.75,3.45-9.11h.02Z"/>
      <path class="st3" d="M2249.35,2335.96h4.33v22.01h.09c.65-.93,1.33-1.84,2.06-2.72l7.02-8.2h5.18l-9.14,9.78,10.41,13.99h-5.21l-8.2-11.38-2.21,2.45v8.93h-4.33v-34.86h0Z"/>
    </g>
    <g>
      <path class="st3" d="M3.19,2370.8v-2.78l3.59-3.48c8.63-8.23,12.56-12.62,12.58-17.71,0-3.43-1.63-6.62-6.66-6.62-3.09,0-5.62,1.59-7.19,2.86l-1.46-3.2c2.31-1.96,5.67-3.44,9.56-3.44,7.27,0,10.33,5,10.33,9.81,0,6.28-4.52,11.32-11.64,18.15l-2.67,2.53v.1h15.15v3.79H3.19Z"/>
      <path class="st3" d="M52.37,2353.56c0,11.47-4.29,17.82-11.76,17.82-6.6,0-11.09-6.18-11.2-17.35,0-11.36,4.9-17.6,11.77-17.6s11.19,6.37,11.19,17.13h0ZM34.01,2354.04c0,8.81,2.7,13.79,6.86,13.79,4.66,0,6.89-5.45,6.89-14.06s-2.11-13.78-6.86-13.78c-3.98,0-6.89,4.89-6.89,14.05Z"/>
      <path class="st3" d="M56.54,2370.8v-2.78l3.59-3.48c8.63-8.23,12.56-12.62,12.58-17.71,0-3.43-1.63-6.62-6.66-6.62-3.09,0-5.62,1.59-7.19,2.86l-1.46-3.2c2.31-1.96,5.67-3.44,9.56-3.44,7.27,0,10.33,5,10.33,9.81,0,6.28-4.52,11.32-11.64,18.15l-2.67,2.53v.1h15.15v3.79h-21.59Z"/>
      <path class="st3" d="M103.4,2340.83h-12.87l-1.3,8.69c.77-.1,1.5-.19,2.74-.19,2.63,0,5.19.57,7.29,1.83,2.62,1.47,4.82,4.42,4.82,8.68,0,6.6-5.24,11.53-12.57,11.53-3.71,0-6.8-1.04-8.43-2.08l1.16-3.49c1.38.83,4.15,1.9,7.24,1.9,4.28,0,8-2.84,7.98-7.38-.03-4.34-2.95-7.44-9.69-7.44-1.96,0-3.46.16-4.7.34l2.19-16.23h16.15v3.83h-.01Z"/>
    </g>
  </g>
  <g>
    <g>
      <rect class="st0" x="919.55" y="928.14" width="55.96" height="55.96" transform="translate(-398.56 950.05) rotate(-45)"/>
      <rect class="st0" x="558.87" y="928.13" width="55.96" height="55.96" transform="translate(-504.19 695.01) rotate(-45)"/>
      <rect class="st0" x="1303.27" y="928.13" width="55.96" height="55.96" transform="translate(-286.16 1221.38) rotate(-45)"/>
      <path class="st0" d="M1451.99,1498.43l-54.28-137.6h-20.99l-58.94,149.9h29.53l10.07-25.13h50.96l9.91,25.13h44.75s-6.48-2.36-11.03-12.3h.02ZM1368.46,1457.94l14.37-37.27,14.32,37.27h-28.69Z"/>
      <path class="st0" d="M1308.31,1458.72s-6.12,24.32-33.9,24.32l-25.17.13,61.13-122.33h-112.73v52.01s6.17-24.31,33.94-24.31l26.11-.02-63.11,122.21h113.73v-52.01h0Z"/>
      <path class="st0" d="M1564.2,1454.4l-57.68-93.57h-41.13s8.9,5.24,8.9,13.9v136h27.82v-99.28l63.77,99.28h26.36v-149.9h-28.04v93.57h0Z"/>
      <path class="st0" d="M913.01,1498.43l-54.28-137.6h-20.99l-58.94,149.9h29.53l10.07-25.13h50.96l9.91,25.13h44.75s-6.48-2.36-11.03-12.3h.02ZM829.48,1457.94l14.37-37.27,14.32,37.27h-28.69Z"/>
      <path class="st0" d="M983.86,1510.95h18.42c43.67,0,52.67-31.95,52.67-42.86v-107.26h-27.7v96.37c0,24.22-19.74,25.99-29.47,25.99-22.7,0-29.93-8.18-29.93-23.65v-98.7h-47.11s7.7,5.19,7.7,14.09v87.72c0,9.39-2.43,48.31,55.43,48.31h-.01Z"/>
      <path class="st0" d="M715.21,1388.54h39.68c30.55,0,40.58,25.44,40.58,25.44v-53.15h-126.91s7.46,4.93,7.46,15.72v133.97h39.18v-48h57.16v-27.56h-57.16v-46.43h0Z"/>
      <path class="st0" d="M2040.14,1260.54l-448.81-17.36v-297.91l-60.42,52.82v314.19h36.38l472.86-18.73c6.15-.29,14.98-6.44,14.98-16.4s-8.82-16.33-14.98-16.62h-.01Z"/>
      <path class="st0" d="M950.41,1187.61c0-33.72,11.32-52.47,26.77-67.91,19.1-19.1,16.01-16.71,16.01-16.71v-9.79c.41-.53,0-.21,0-.21v-93.85s-5.4,12.03-18.18,27.88c-7.57,9.39-18.57,20.38-30.3,30.3-31.51,26.66-54.69,46.77-54.69,113.92,0,73.43-.05,140.92-.05,140.92h60.42s.02-52.82.02-124.55h0Z"/>
      <path class="st0" d="M736.81,1312.28v-314.19l-60.42-52.82v297.91l-447.81,17.36c-6.16.29-15.98,6.1-15.98,16.68s9.82,16.04,15.98,16.33l471.86,18.73h36.38-.01Z"/>
      <path class="st0" d="M785.3,1001.07v311.18h60.42v-314.43c0-40.22-10.45-70.29-34.85-91.95-12.04-10.68-30.01-24.92-34.99-29.07-20.54-17.1-46.37-38.63-46.37-38.63-40.45-32.61-52.94-75.46-52.94-75.46v120.29s76.78,63.83,92.05,77.57c12.12,10.91,16.69,23.03,16.69,40.51h-.01Z"/>
      <path class="st2" d="M1156.25,230.68c-.23-6.22-3.44-18.08-16.51-18.08s-16.31,11.89-16.51,18.07l-19.14,697.87h71.28l-19.13-697.87h.01Z"/>
      <path class="st0" d="M1268.94,1225.65c0-42.42,10.16-52.48,30.2-67.34,6.39-4.74,12.84-8.37,18.29-11.01v164.96h164.99v-311.18c0-17.48,4.57-29.6,16.69-40.51,15.26-13.74,92.05-77.56,92.05-77.56v-120.29s-12.49,42.85-52.94,75.46c0,0-25.83,21.53-46.37,38.63-4.98,4.15-22.96,18.39-34.99,29.07-24.4,21.66-34.85,51.73-34.85,91.95v244.01h-40.16v-242.73s-15.23,27.56-50.62,56.9c-17.54,14.54-40.57,24.23-69.64,42.32-19.76,12.29-53.05,36.46-53.05,94.63v48.89h-40.59v-242.73s-15.22,27.56-50.62,56.9c-17.54,14.54-40.57,24.23-69.64,42.32-19.76,12.29-53.05,36.46-53.05,94.63v119.3h60.42v-86.61c0-42.42,10.16-52.48,30.2-67.34,6.39-4.74,12.85-8.37,18.29-11.01v154.96l19.72,733.78c.23,6.22,3.81,19.08,16.67,19.08s16.14-12.89,16.34-19.07l17.58-723.77,95.11-.02v-86.61h-.03,0Z"/>
      <path class="st2" d="M1258.74,1601.91c6.11-6.32,9.4-13.88,9.4-21.84,0-8.77-4.26-16.33-11.99-21.29-6.25-4.01-14.49-6.22-23.2-6.22-18.53,0-38.22,10.52-38.22,30,0,11.31,5.09,18.68,10.6,23.68-8.18,7.16-12.75,16.51-12.75,26.47s4.63,18.28,13.03,24.07c7.14,4.92,16.55,7.63,26.49,7.63,10.45,0,20.31-2.95,27.75-8.32,9.01-6.5,13.78-15.9,13.78-27.18,0-13.02-7.36-21.41-14.87-27.01h-.02ZM1230.35,1647.75c-9.54,0-19.41-5.57-19.41-14.9,0-5.22,1.53-12.98,14.56-20.34l.79.39c11.51,5.65,21.46,10.54,21.46,22.05,0,8.84-8.74,12.8-17.4,12.8h0ZM1239.06,1596.73l-.58-.29c-9.87-4.95-19.19-9.62-19.19-16.75s8.04-11.49,15.81-11.49c7.09,0,14.66,3.12,14.66,11.89,0,7.11-3.01,11.83-10.7,16.65h0Z"/>
      <path class="st2" d="M1347.22,1601.91c6.11-6.32,9.4-13.88,9.4-21.84,0-8.77-4.26-16.33-11.99-21.29-6.25-4.01-14.49-6.22-23.2-6.22-18.53,0-38.22,10.52-38.22,30,0,11.31,5.09,18.68,10.6,23.68-8.18,7.16-12.75,16.51-12.75,26.47s4.63,18.28,13.03,24.07c7.14,4.92,16.55,7.63,26.49,7.63,10.45,0,20.31-2.95,27.75-8.32,9.01-6.5,13.78-15.9,13.78-27.18,0-13.02-7.36-21.41-14.87-27.01h-.02ZM1318.83,1647.75c-9.54,0-19.41-5.57-19.41-14.9,0-5.22,1.53-12.98,14.56-20.34l.79.39c11.51,5.65,21.46,10.54,21.46,22.05,0,8.84-8.74,12.8-17.4,12.8h0ZM1327.54,1596.73l-.58-.29c-9.87-4.95-19.19-9.62-19.19-16.75s8.04-11.49,15.81-11.49c7.09,0,14.66,3.12,14.66,11.89,0,7.11-3.01,11.83-10.7,16.65h0Z"/>
      <path class="st2" d="M1020.02,1552.38c-23.4,0-39.13,15.9-39.13,39.56s15.7,35.62,31.21,35.67c3.88,0,8.72-.58,11.61-1.37-9.08,26.22-31.38,36.85-31.38,36.85,0,0,9.39,2.59,23.13-.81,28.2-6.99,44.6-28.76,44.6-61.43,0-22.36-10.49-48.46-40.04-48.46h0ZM1020.79,1610.68c-8.06,0-14.77-7.38-14.77-22.74,0-4.37,2.82-20.08,12.73-20.08,7.44,0,13.81,6.78,13.81,23.13,0,13.52-4.5,19.69-11.78,19.69h.01Z"/>
      <path class="st2" d="M937.3,1587.19v76.86h29.21v-111.67c-7.87,7.15-43.75,19.82-43.75,19.82,0,0,14.54.78,14.54,14.99h0Z"/>
    </g>
    <g>
      <g>
        <g>
          <path class="st0" d="M1242.15,1819.4c0,11.94-4.41,17.92-13.22,17.92s-13.4-6.07-13.4-18.19c0-.43.01-1.3.01-1.3v-41.97h-12.45v44.82c.14,17.57,8.44,26.36,24.92,26.36,17.72,0,26.58-9.46,26.58-28.37v-42.81h-12.44v43.54h0Z"/>
          <rect class="st0" x="1266.28" y="1749.26" width="12.44" height="76.83"/>
          <path class="st0" d="M1298.77,1824.14c0,4.85-.91,8.32-2.72,10.41-1.6,1.84-4.1,2.76-7.51,2.76h-9.57v9.72h8.92c15.54,0,23.31-7.86,23.31-23.58v-47.6h-12.44v48.29h0Z"/>
          <path class="st0" d="M1304.9,1754.1c-1.81,0-3.35.63-4.61,1.89s-1.93,2.83-1.93,4.61.64,3.39,1.93,4.65c1.26,1.23,2.8,1.84,4.61,1.84s3.32-.63,4.61-1.89c1.26-1.29,1.89-2.82,1.89-4.61s-.63-3.32-1.89-4.61c-1.29-1.26-2.82-1.89-4.61-1.89h0Z"/>
          <path class="st0" d="M1228.82,1767.09c1.78,0,3.32-.63,4.61-1.89,1.26-1.29,1.89-2.82,1.89-4.61s-.63-3.32-1.89-4.61c-1.29-1.26-2.82-1.89-4.61-1.89s-3.35.63-4.61,1.89-1.93,2.83-1.93,4.61.64,3.39,1.93,4.65c1.26,1.23,2.8,1.84,4.61,1.84h0Z"/>
          <rect class="st0" x="1488.41" y="1749.03" width="12.44" height="74.05"/>
          <path class="st0" d="M1860.71,1822v-26.64c0-14.63-10.07-19.25-20.31-19.25h-19.02l18.34-27.08h-13.39l-27.35,36.98h37.04c4.84,0,8.24.82,10.21,2.45,1.96,1.63,2.94,4.52,2.94,8.67v16.14h-62.72v-37.21h-19.71c-8.2,0-14.54,2.4-19.02,7.19-3.99,4.3-5.99,9.8-5.99,16.49v2.06c.23,14.19,8.66,21.28,25.28,21.28h93.69v-1.08h.01ZM1774.39,1813.27h-6.03c-9.16,0-13.89-4.14-14.17-12.41,0-.27-.01-2-.01-2.28,0-3.75,1-6.79,2.99-9.12,2.03-2.4,4.77-3.59,8.25-3.59h8.98v27.4h0Z"/>
          <path class="st0" d="M1982.24,1775.82v37.45h-2.44c-4.42,0-7.37-.57-8.84-1.7-1.54-1.17-2.3-3.59-2.3-7.28v-19.9h-11.98v17.55c0,8.53-1.2,12.07-7.55,12.07-6.85,0-6.49-5.42-6.49-12.16v-17.46h-12.44v17.18c0,4.51-.66,7.62-1.98,9.3-1.23,1.6-3.41,2.4-6.54,2.4h-33.98v-37.42h-11.46v48.29c0,4.85-.91,8.32-2.72,10.41-1.6,1.84-4.1,2.76-7.51,2.76h-14.81v9.72h13.19c15.54,0,23.31-7.86,23.31-23.58v-.37h33.88c6.45,0,10.64-2.2,12.57-6.59,1.63,4.88,7.05,7.32,13.78,7.32,7.55,0,12.63-2.41,14.87-7.23,1.35,2.52,3.36,4.25,6.03,5.21,2.49.86,6.29,1.29,11.42,1.29h13.68v-47.26h-11.7,0Z"/>
          <circle class="st0" cx="1969.21" cy="1764.16" r="6.6"/>
          <circle class="st0" cx="1952.17" cy="1764.25" r="6.6"/>
          <circle class="st0" cx="1960.67" cy="1749.16" r="6.6"/>
          <circle class="st0" cx="1779.14" cy="1758.57" r="6.6"/>
          <circle class="st0" cx="1762.09" cy="1758.65" r="6.6"/>
          <circle class="st0" cx="1565.19" cy="1840.39" r="6.6"/>
          <circle class="st0" cx="1548.21" cy="1840.38" r="6.6"/>
          <path class="st0" d="M1675.16,1800.05v-1.76c.05-3.61,1.05-6.55,2.99-8.82,2.03-2.4,4.77-3.59,8.25-3.59h21.05v-9.81h-19.71c-8.2,0-14.54,2.4-19.02,7.19-3.99,4.3-5.99,9.8-5.99,16.49v1.81c.04,4.67.97,8.57,2.77,11.72h-23.6v-64.24h-12.44v64.24h-20.23v-15.41c0-6.85-1.55-11.93-4.65-15.25-3.5-3.72-9.21-6.59-17.13-6.59h-18.93v37.24h-6.45c-8.6,0-14.69-1.6-18.29-4.79-3.41-2.98-5.11-7.89-5.11-14.74v-17.88h-12.53v19.32c0,9.09,2.56,15.89,7.69,20.41,5.65,5.01,14.63,7.51,26.95,7.51h19.71v-36.23h6.22c3.9,0,6.62.92,8.15,2.76s2.3,5.04,2.3,9.58v23.89h117.55v-9.81h-25.36c-9.46,0-14.19-4.41-14.19-13.22v-.02h0Z"/>
          <path class="st0" d="M1459.95,1813.27h-21.91,3.04-7.83v-37.21h-19.71c-8.2,0-14.54,2.4-19.02,7.19-3.99,4.3-5.99,9.8-5.99,16.49v2.06c.07,4.56,1,8.38,2.76,11.47h-24.71v-37.21h-19.71c-8.2,0-14.54,2.4-19.02,7.19-3.99,4.3-5.99,9.8-5.99,16.49v1.81c.13,14.36,8.56,21.54,25.29,21.54h7.37v1.61c0,8.35-5.45,12.53-16.35,12.53h-15.09v9.81h13.98c10.01,0,17.56-2.3,22.66-6.91,4.57-4.12,6.86-9.86,6.86-16.86v-.18h74.5-3.04,34.35v-74.05h-12.44v64.24h0ZM1354.5,1813.27h-6.03c-9.27,0-13.99-4.23-14.18-12.69v-1.99c0-3.75,1-6.79,2.99-9.12,2.03-2.4,4.78-3.59,8.25-3.59h8.98v27.4h0ZM1415.14,1813.27c-9.16,0-13.89-4.14-14.17-12.41,0-.27-.01-2-.01-2.28,0-3.75,1-6.79,2.99-9.12,2.03-2.4,4.77-3.59,8.25-3.59h8.98v27.4h-6.04,0Z"/>
          <circle class="st0" cx="1414.72" cy="1758.65" r="6.6"/>
        </g>
        <g>
          <path class="st0" d="M1956.95,1911.58c-3.99,4.3-5.99,9.8-5.99,16.49v1.81c.13,14.36,8.56,21.54,25.29,21.54h7.37v1.43c0,8.35-5.45,12.53-16.35,12.53h-15.09v9.81h13.98c10.01,0,17.56-2.3,22.66-6.91,4.57-4.12,6.86-9.67,6.86-16.67v-47.2h-19.71c-8.2,0-14.54,2.4-19.02,7.19v-.02h0ZM1983.62,1941.6h-6.03c-9.27,0-13.99-4.23-14.18-12.69v-1.99c0-3.75,1-6.79,2.99-9.12,2.03-2.4,4.78-3.59,8.25-3.59h8.98v27.4h0Z"/>
          <path class="st0" d="M1872.09,1911.58c-3.99,4.3-5.99,9.8-5.99,16.49v1.81c.13,14.36,8.56,21.54,25.29,21.54h7.37v1.43c0,8.35-5.45,12.53-16.35,12.53h-15.09v9.81h13.98c10.01,0,17.56-2.3,22.66-6.91,4.57-4.12,6.86-9.67,6.86-16.67v-47.2h-19.71c-8.2,0-14.54,2.4-19.02,7.19v-.02h0ZM1898.76,1941.6h-6.03c-9.27,0-13.99-4.23-14.18-12.69v-1.99c0-3.75,1-6.79,2.99-9.12,2.03-2.4,4.78-3.59,8.25-3.59h8.98v27.4h0Z"/>
          <rect class="st0" x="1634.26" y="1877.58" width="12.44" height="73.83"/>
          <path class="st0" d="M1692.74,1904.39c-7.86,0-14.02,2.35-18.47,7.05-4.12,4.36-6.17,9.93-6.17,16.72v1.83c.14,14.28,8.57,21.42,25.29,21.42h20.64v-25.32c0-14.46-7.09-21.7-21.28-21.7h-.01ZM1701.86,1941.6h-7.14c-9.38,0-14.11-4.34-14.19-13.01v-1.67c0-3.75,1-6.79,2.99-9.12,2.03-2.4,4.77-3.59,8.24-3.59,6.73,0,10.09,4.47,10.09,13.4v13.99h.01Z"/>
          <polygon class="st0" points="1840.85 1941.6 1790.77 1941.6 1790.77 1951.41 1853.29 1951.41 1853.29 1877.36 1840.85 1877.36 1840.85 1941.6"/>
          <rect class="st0" x="1921.76" y="1899.31" width="12.48" height="55.11"/>
          <rect class="st0" x="1813.07" y="1877.58" width="12.44" height="55.86"/>
          <path class="st0" d="M1351,1952.47c0,4.85-.91,8.32-2.72,10.41-1.6,1.84-4.1,2.76-7.51,2.76h-9.57v9.72h8.93c15.54,0,23.31-7.86,23.31-23.58v-47.6h-12.44v48.29h0Z"/>
          <circle class="st0" cx="1469.9" cy="1886.98" r="6.6"/>
          <circle class="st0" cx="1452.92" cy="1886.98" r="6.6"/>
          <circle class="st0" cx="1242.51" cy="1886.98" r="6.6"/>
          <circle class="st0" cx="1225.53" cy="1886.98" r="6.6"/>
          <circle class="st0" cx="1317.57" cy="1969.5" r="6.6"/>
          <circle class="st0" cx="1300.66" cy="1969.43" r="6.6"/>
          <path class="st0" d="M1923.34,1879.21c-1.11,1.11-1.68,2.49-1.68,4.1v10.53h12.68v-4.94h-7.74v-5.58c0-.57.27-.87.84-.87h6.9v-4.94h-6.9c-1.61,0-2.99.57-4.1,1.72v-.02h0Z"/>
          <path class="st0" d="M1771.17,1909c-3.32-3.1-8.4-4.65-15.25-4.65h-22.99v12.07h21.65c4.54,0,7.74.77,9.58,2.3,1.84,1.54,2.76,4.25,2.76,8.15v12.56h-39.85v11.98h50.67v-25.27c0-7.92-2.87-13.63-6.59-17.13h.02,0Z"/>
          <path class="st0" d="M1605.8,1941.6h-53.45c-9.46,0-14.19-4.41-14.19-13.22v-1.76c.05-3.61,1.05-6.55,2.99-8.82,2.03-2.4,4.77-3.59,8.25-3.59h21.05v-9.81h-19.71c-8.2,0-14.54,2.4-19.02,7.19-3.99,4.3-5.99,9.8-5.99,16.49v1.81c.04,4.67.97,8.57,2.77,11.72h-50.72v-37.21h-19.71c-8.2,0-14.54,2.4-19.02,7.19-3.99,4.3-5.99,9.8-5.99,16.49v2.06c.07,4.56,1,8.38,2.76,11.47h-46.95v-64.24h-12.44v74.05h241.81v-73.83h-12.44v64.02h0ZM1459.66,1941.6c-9.16,0-13.89-4.14-14.17-12.41,0-.27-.01-2-.01-2.28,0-3.75,1-6.79,2.99-9.12,2.03-2.4,4.77-3.59,8.25-3.59h8.98v27.4h-6.04,0Z"/>
          <path class="st0" d="M1324,1951.41v-44.36h-12.44v34.55h-60.7v-37.21h-19.71c-8.2,0-14.54,2.4-19.02,7.19-3.99,4.3-5.99,9.8-5.99,16.49v2.06c.23,14.19,8.66,21.28,25.28,21.28h92.58,0ZM1238.8,1941.6h-6.03c-9.16,0-13.89-4.14-14.17-12.41,0-.27-.01-2-.01-2.28,0-3.75,1-6.79,2.99-9.12,2.03-2.4,4.77-3.59,8.25-3.59h8.98v27.4h0Z"/>
        </g>
      </g>
      <g>
        <g>
          <g>
            <path class="st1" d="M357.4,1892.48h18.08v8.95h-17.74c-1.62,0-2.88.03-3.78.08-.91.06-1.8.2-2.69.42-.89.23-1.53.58-1.94,1.07-.4.49-.73,1.13-.98,1.91-.25.79-.38,1.8-.38,3.04,0,2.4.46,4.08,1.39,5.04.92.96,2.64,1.81,5.14,2.56l11.27,3.38c4.47,1.35,7.6,3.36,9.39,6.02,1.79,2.67,2.69,6.21,2.69,10.64,0,3.27-.37,5.93-1.1,7.99-.73,2.06-1.97,3.69-3.73,4.87-1.75,1.18-3.87,2-6.36,2.45-2.48.45-5.69.68-9.62.68h-18.66v-9.12h18.89c3.93,0,6.55-.44,7.86-1.32s1.96-2.77,1.96-5.66c0-2.4-.44-4.07-1.33-5.01-.89-.94-2.52-1.76-4.91-2.48l-11.79-3.66c-4.24-1.28-7.26-3.26-9.07-5.94-1.81-2.68-2.72-6.22-2.72-10.61,0-3.23.37-5.85,1.1-7.88s1.98-3.58,3.76-4.67c1.77-1.09,3.81-1.82,6.12-2.2,2.31-.37,5.35-.56,9.13-.56h.02Z"/>
            <path class="st1" d="M522.09,1892.48h18.08v8.95h-17.74c-1.62,0-2.88.03-3.78.08-.91.06-1.8.2-2.69.42-.89.23-1.53.58-1.94,1.07-.4.49-.73,1.13-.98,1.91-.25.79-.38,1.8-.38,3.04,0,2.4.46,4.08,1.39,5.04.92.96,2.64,1.81,5.14,2.56l11.27,3.38c4.47,1.35,7.6,3.36,9.39,6.02,1.79,2.67,2.69,6.21,2.69,10.64,0,3.27-.37,5.93-1.1,7.99-.73,2.06-1.97,3.69-3.73,4.87-1.75,1.18-3.87,2-6.36,2.45-2.48.45-5.69.68-9.62.68h-18.66v-9.12h18.89c3.93,0,6.55-.44,7.86-1.32s1.96-2.77,1.96-5.66c0-2.4-.44-4.07-1.33-5.01-.89-.94-2.52-1.76-4.91-2.48l-11.79-3.66c-4.24-1.28-7.26-3.26-9.07-5.94-1.81-2.68-2.72-6.22-2.72-10.61,0-3.23.37-5.85,1.1-7.88s1.98-3.58,3.76-4.67c1.77-1.09,3.81-1.82,6.12-2.2,2.31-.37,5.35-.56,9.13-.56h.02,0Z"/>
            <path class="st0" d="M637.56,1892.48h25.56v8.84h-23.2c-1.54,0-2.63.37-3.26,1.1-.64.73-.95,2-.95,3.81v10.28h24.03v8.15h-24.03v13.06c0,1.81.32,3.09.95,3.84.64.75,1.72,1.13,3.26,1.13h23.2v8.72h-25.56c-3.89,0-6.96-1-9.21-3s-3.38-4.72-3.38-8.15v-36.69c0-3.43,1.14-6.13,3.41-8.12,2.27-1.98,5.33-2.98,9.19-2.98h0Z"/>
            <path class="st0" d="M808.43,1892.48h25.56v8.84h-23.2c-1.54,0-2.63.37-3.26,1.1-.64.73-.95,2-.95,3.81v10.28h24.03v8.15h-24.03v13.06c0,1.81.32,3.09.95,3.84.64.75,1.72,1.13,3.26,1.13h23.2v8.72h-25.56c-3.89,0-6.96-1-9.21-3s-3.38-4.72-3.38-8.15v-36.69c0-3.43,1.14-6.13,3.41-8.12,2.27-1.98,5.33-2.98,9.19-2.98h0Z"/>
            <path class="st1" d="M319.96,1945.78c-5.12-.21-8.62-6.28-8.62-6.28,0,0,.21-.29.31-.44,4.31-6.12,9.15-15.16,11.53-22.77h-3.32c-1.86,6.31-5.99,14.61-10.89,20.75-3.47-3.92-5.96-8.15-7.62-10.37-1.91-2.53-3.91-5.23-5.7-7.69,7.24-4.31,12.62-10.85,12.62-15.65,0-6.53-4.98-11-14-11s-15.14,4.93-15.14,12.83c0,4.37,1.48,8.67,5.57,13.6.11.13.27.32.41.49-8.92,4.71-13.09,10.06-13.09,16.84,0,8.4,6.77,15.33,17.96,15.33,7.37,0,12.73-2.62,16.38-5.91.55.64,1.07,1.23,1.5,1.69,3.36,3.16,5.15,4.21,9.92,4.21h10.75v-5.63s-6.13.1-8.58,0h.01ZM294.16,1895.59c3.93,0,6.64,2.76,6.64,7.21,0,3.87-1.02,7.62-7.92,12.27-.88-1.25-1.61-2.34-2.1-3.12-2.47-3.94-3.47-6.35-3.47-9.11,0-4.18,2.93-7.25,6.86-7.25h0ZM293.99,1945.12c-7.53,0-13.27-6.37-12.44-11.98.39-2.66,2.45-6.15,6.79-9.93,4.2,5.24,10.66,13.43,15.35,19.11-2.65,1.78-6.03,2.8-9.7,2.8Z"/>
            <path class="st1" d="M408.45,1892.48c6.12,0,10.9.9,14.33,2.69,3.43,1.79,5.93,4.8,7.51,9.02,1.58,4.22,2.37,10.14,2.37,17.76s-.79,13.54-2.37,17.76-4.08,7.23-7.51,9.02c-3.43,1.79-8.2,2.69-14.33,2.69s-10.83-.9-14.24-2.69c-3.41-1.79-5.9-4.81-7.48-9.05-1.58-4.24-2.37-10.15-2.37-17.73s.79-13.49,2.37-17.73,4.07-7.25,7.48-9.05c3.41-1.79,8.15-2.69,14.24-2.69ZM408.45,1901.28c-4.93,0-8.31,1.48-10.14,4.43-1.83,2.95-2.74,8.37-2.74,16.24s.91,13.29,2.74,16.24,5.21,4.43,10.14,4.43,8.38-1.46,10.23-4.4c1.85-2.93,2.77-8.35,2.77-16.27s-.92-13.34-2.77-16.27c-1.85-2.93-5.26-4.4-10.23-4.4Z"/>
            <path class="st1" d="M491.35,1892.48v54.98c0,2.64-1.31,3.95-3.93,3.95h-8.38c-1.12,0-2-.25-2.66-.76-.66-.5-1.25-1.34-1.79-2.5l-20.45-44.93v48.18h-10.46v-55.04c0-2.6,1.33-3.89,3.99-3.89h8.26c1.12,0,2,.25,2.66.76.65.5,1.23,1.34,1.73,2.5l20.68,44.41v-47.66h10.35Z"/>
            <path class="st0" d="M593.24,1892.48c7.39,0,12.64,1.22,15.74,3.67,3.1,2.45,4.65,6.9,4.65,13.36,0,4.51-.85,7.97-2.54,10.38-1.7,2.41-4.51,3.84-8.43,4.3v.46c1.62.34,3.14,1.22,4.56,2.64,1.42,1.41,2.52,3.38,3.29,5.9l5.26,18.23h-11.32l-4.68-18.06c-.89-3.48-3.14-5.27-6.76-5.27h-10.57v23.33h-10.51v-58.94h21.32-.01ZM582.43,1901.2v18.29h10.57c3.74,0,6.31-.66,7.71-1.98,1.41-1.32,2.11-3.76,2.11-7.31s-.69-5.94-2.08-7.17c-1.39-1.22-3.97-1.83-7.74-1.83h-10.57Z"/>
            <path class="st0" d="M688.91,1892.48h10.34c1.96,0,3.24.93,3.81,2.79l17.62,56.15h-10.92l-4.8-16.68h-21.78l-4.8,16.68h-10.92l17.62-56.15c.58-1.86,1.85-2.79,3.81-2.79h.02,0ZM695.26,1900.56h-2.31l-7.22,25.4h16.7s-7.09-24.93-7.16-25.4h-.01Z"/>
            <path class="st0" d="M862.15,1892.48h18.08v8.95h-17.74c-1.62,0-2.88.03-3.78.08-.91.06-1.8.2-2.69.42-.89.23-1.53.58-1.94,1.07-.4.49-.73,1.13-.98,1.91-.25.79-.38,1.8-.38,3.04,0,2.4.46,4.08,1.39,5.04.92.96,2.64,1.81,5.14,2.56l11.27,3.38c4.47,1.35,7.6,3.36,9.39,6.02,1.79,2.67,2.69,6.21,2.69,10.64,0,3.27-.37,5.93-1.1,7.99-.73,2.06-1.97,3.69-3.73,4.87-1.75,1.18-3.87,2-6.36,2.45-2.48.45-5.69.68-9.62.68h-18.66v-9.12h18.89c3.93,0,6.55-.44,7.86-1.32s1.96-2.77,1.96-5.66c0-2.4-.44-4.07-1.33-5.01-.89-.94-2.52-1.76-4.91-2.48l-11.79-3.66c-4.24-1.28-7.26-3.26-9.07-5.94-1.81-2.68-2.72-6.22-2.72-10.61,0-3.23.37-5.85,1.1-7.88s1.98-3.58,3.76-4.67c1.77-1.09,3.81-1.82,6.12-2.2,2.31-.37,5.35-.56,9.13-.56h.02,0Z"/>
            <path class="st0" d="M932.2,1901.61h-15.46v49.81h-10.69v-49.81h-15.29v-9.13h41.44v9.13Z"/>
            <path class="st0" d="M951.44,1892.48h10.34c1.96,0,3.24.93,3.81,2.79l17.62,56.15h-10.92l-4.8-16.68h-21.78l-4.8,16.68h-10.92l17.62-56.15c.58-1.86,1.85-2.79,3.81-2.79h.02,0ZM957.79,1900.56h-2.31l-7.22,25.4h16.7s-7.09-24.93-7.16-25.4h-.01Z"/>
            <path class="st0" d="M1022.46,1901.61h-15.46v49.81h-10.69v-49.81h-15.29v-9.13h41.44v9.13Z"/>
            <path class="st0" d="M1045.47,1892.48h25.56v8.84h-23.2c-1.54,0-2.63.37-3.26,1.1-.64.73-.95,2-.95,3.81v10.28h24.03v8.15h-24.03v13.06c0,1.81.32,3.09.95,3.84.64.75,1.72,1.13,3.26,1.13h23.2v8.72h-25.56c-3.89,0-6.96-1-9.21-3s-3.38-4.72-3.38-8.15v-36.69c0-3.43,1.14-6.13,3.41-8.12,2.27-1.98,5.33-2.98,9.19-2.98h-.01Z"/>
          </g>
          <path class="st0" d="M738.39,1892.48v45.02c0,1.82.37,3.08,1.1,3.8.73.72,2.04,1.07,3.93,1.07h20.6v9.04h-23.08c-8.78,0-13.17-4.06-13.17-12.17v-46.76h10.63,0Z"/>
        </g>
        <g>
          <path class="st1" d="M297.7,1759.39h12.18c2.31,0,3.81,1.12,4.49,3.36l20.75,67.68h-12.86l-5.65-20.11h-25.65l-5.65,20.11h-12.86l20.75-67.68c.68-2.24,2.18-3.36,4.49-3.36h0ZM305.18,1769.13h-2.72l-8.5,30.62h19.66s-8.35-30.06-8.44-30.62Z"/>
          <path class="st1" d="M472.45,1759.39h12.18c2.31,0,3.81,1.12,4.49,3.36l20.75,67.68h-12.86l-5.65-20.11h-25.65l-5.65,20.11h-12.86l20.75-67.68c.68-2.24,2.18-3.36,4.49-3.36h0ZM479.94,1769.13h-2.72l-8.5,30.62h19.66s-8.35-30.06-8.44-30.62Z"/>
          <path class="st1" d="M406.24,1830.12h-12.52v-70.52h12.52v70.52Z"/>
          <path class="st1" d="M529.79,1759.6v54.04c0,2.18.43,3.7,1.29,4.56.86.86,2.4,1.29,4.63,1.29h24.25v10.85h-27.18c-10.34,0-15.51-4.87-15.51-14.6v-56.12h12.52v-.02h0Z"/>
          <path class="st1" d="M353.32,1759.6v54.04c0,2.18.43,3.7,1.29,4.56.86.86,2.4,1.29,4.63,1.29h24.25v10.85h-27.18c-10.34,0-15.51-4.87-15.51-14.6v-56.12h12.52v-.02h0Z"/>
          <path class="st0" d="M588.9,1759.39h29.05v10.64h-25.37c-2.18,0-3.71.44-4.59,1.32s-1.33,2.41-1.33,4.59v13.56h27.21v9.94h-27.21v30.92h-12.59v-57.07c0-4.4,1.34-7.82,4.01-10.26,2.68-2.43,6.28-3.65,10.82-3.65h0Z"/>
          <path class="st0" d="M735.84,1759.39v42.03c0,10.57-1.95,18.04-5.85,22.39-3.9,4.36-10.57,6.54-20,6.54s-16.72-2.18-20.78-6.54c-4.06-4.36-6.09-11.82-6.09-22.39v-42.03h12.52v42.03c0,6.82,1.01,11.52,3.03,14.12s5.63,3.89,10.85,3.89,8.68-1.31,10.68-3.93,2.99-7.31,2.99-14.08v-42.03h12.65Z"/>
          <path class="st0" d="M792.07,1769.9l-34.01,50.03h34.69v10.51h-48.5v-10.51l34.01-50.03h-33.4v-10.51h47.21v10.51Z"/>
          <path class="st0" d="M827.57,1759.39h12.18c2.31,0,3.81,1.12,4.49,3.36l20.75,67.68h-12.86l-5.65-20.11h-25.65l-5.65,20.11h-12.86l20.75-67.68c.68-2.24,2.18-3.36,4.49-3.36h.01ZM835.05,1769.13h-2.72l-8.5,30.62h19.66s-8.35-30.06-8.44-30.62Z"/>
          <path class="st0" d="M641.13,1759.39h12.18c2.31,0,3.81,1.12,4.49,3.36l20.75,67.68h-12.86l-5.65-20.11h-25.65l-5.65,20.11h-12.86l20.75-67.68c.68-2.24,2.18-3.36,4.49-3.36h.01ZM648.62,1769.13h-2.72l-8.5,30.62h19.66s-8.35-30.06-8.44-30.62Z"/>
          <path class="st0" d="M928.71,1759.39v66.29c0,3.18-1.54,4.77-4.63,4.77h-9.86c-1.32,0-2.36-.3-3.13-.91s-1.47-1.61-2.11-3.01l-24.08-54.17v58.1h-12.31v-66.36c0-3.13,1.56-4.7,4.69-4.7h9.73c1.31,0,2.36.3,3.13.91s1.45,1.61,2.04,3.01l24.35,53.54v-57.46h12.18Z"/>
          <path class="st0" d="M987.05,1759.52h19.18v11.33h-19.18c-5.71,0-9.63,1.8-11.74,5.39s-3.16,9-3.16,18.75,1.05,15.16,3.16,18.75,6.02,5.39,11.74,5.39h19.31v11.33h-19.31c-10.34,0-17.61-2.74-21.8-8.22-4.2-5.48-6.29-13.72-6.29-27.25s2.1-21.77,6.29-27.25,11.46-8.22,21.8-8.22Z"/>
          <path class="st0" d="M1042.53,1759.85c7.21,0,12.83,1.11,16.87,3.34s6.98,5.96,8.84,11.2,2.79,11.35,2.79,20.8-.93,15.49-2.79,20.72c-1.86,5.24-4.81,8.97-8.84,11.2-4.04,2.23-9.66,3.34-16.87,3.34s-12.76-1.11-16.77-3.34-6.95-5.97-8.81-11.23-2.79-11.28-2.79-20.69.93-15.51,2.79-20.77,4.8-9.01,8.81-11.23c4.01-2.23,9.6-3.34,16.77-3.34ZM1042.53,1770.77c-5.81,0-9.79,1.83-11.94,5.49-2.15,3.66-3.23,9.14-3.23,18.93s1.08,15.18,3.23,18.85c2.15,3.66,6.13,5.49,11.94,5.49s9.86-1.82,12.04-5.46,3.27-9.05,3.27-18.88-1.09-15.32-3.27-18.96-6.19-5.46-12.04-5.46h0Z"/>
        </g>
      </g>
    </g>
  </g>
</svg>